{"title":"We Are Your Friends 2015 720p WEB-DL DD5.1 H264-RARBG","uid":12635945,"size":3197156546,"categoryP":"video","categoryS":"hd___movies","magnet":"?xt=urn:btih:adb215978a9e7cc49e998edec1021a3759908a2e&amp;dn=We+Are+Your+Friends+2015+720p+WEB-DL+DD5.1+H264-RARBG&amp;tr=udp%3A%2F%2Ftracker.leechers-paradise.org%3A6969&amp;tr=udp%3A%2F%2Fzer0day.ch%3A1337&amp;tr=udp%3A%2F%2Fopen.demonii.com%3A1337&amp;tr=udp%3A%2F%2Ftracker.coppersurfer.tk%3A6969&amp;tr=udp%3A%2F%2Fexodus.desync.com%3A6969","seeders":0,"leechers":11,"uploader":"TheRival","files":5,"time":1445927704,"description":"Screens: \nhttp://extraimago.com/image/zKy \nhttp://extraimago.com/image/zKL \nhttp://extraimago.com/image/zKQ\r\n\r\nVideo\r\nID                                       : 1\r\nFormat                                   : AVC\r\nFormat/Info                              : Advanced Video Codec\r\nFormat profile                           :   \r\nFormat settings, CABAC                   : No\r\nFormat settings, ReFrames                : 2 frames\r\nCodec ID                                 : V_MPEG4/ISO/AVC\r\nDuration                                 : 1h 36mn\r\nBit rate                                 : 3 956 Kbps\r\nWidth                                    : 1 280 pixels\r\nHeight                                   : 718 pixels\r\nDisplay aspect ratio                     : 16:9\r\nFrame rate mode                          : Constant\r\nFrame rate                               : 23.976 fps\r\nColor space                              : YUV\r\nChroma subsampling                       : 4:2:0\r\nBit depth                                : 8 bits\r\nScan type                                : Progressive\r\nBits/(Pixel*Frame)                       : 0.180\r\nStream size                              : 2.66 GiB (89%)\r\nTitle                                    : We.Are.Your.Friends.2015.720p.WEB-DL.DD5.1.H264-RARBG\r\nLanguage                                 : English\r\nDefault                                  : Yes\r\nForced                                   : No\r\nColor range                              : Limited\r\nColor primaries                          : BT.709\r\nTransfer characteristics                 : BT.709\r\nMatrix coefficients                      : BT.709\r\n\r\nAudio\r\nID                                       : 2\r\nFormat                                   : AC-3\r\nFormat/Info                              : Audio Coding 3\r\nMode extension                           : CM (complete main)\r\nFormat settings, Endianness              : Big\r\nCodec ID                                 : A_AC3\r\nDuration                                 : 1h 36mn\r\nBit rate mode                            : Constant\r\nBit rate                                 : 384 Kbps\r\nChannel(s)                               : 6 channels\r\nChannel positions                        : Front: L C R, Side: L R, LFE\r\nSampling rate                            : 48.0 KHz\r\nCompression mode                         : Lossy\r\nStream size                              : 264 MiB (9%)\r\nTitle                                    : We.Are.Your.Friends.2015.720p.WEB-DL.DD5.1.H264-RARBG\r\nLanguage                                 : English\r\nDefault                                  : Yes\r\nForced                                   : No\r\n\r\nText\r\nID                                       : 3\r\nFormat                                   : UTF-8\r\nCodec ID                                 : S_TEXT/UTF8\r\nCodec ID/Info                            : UTF-8 Plain Text\r\nLanguage                                 : English\r\nDefault                                  : No\r\nForced                                   : No\r\n\r\nMenu\r\n00:00:00.000                             : en:1\r\n00:09:23.000                             : en:2\r\n00:20:46.000                             : en:3\r\n00:30:39.000                             : en:4\r\n00:40:59.000                             : en:5\r\n00:52:18.000                             : en:6\r\n00:59:22.000                             : en:7\r\n01:09:14.000                             : en:8\r\n01:21:20.000                             : en:9\r\n01:30:16.000                             : en:10","torrent":{"xt":"urn:btih:adb215978a9e7cc49e998edec1021a3759908a2e","amp;dn":"We+Are+Your+Friends+2015+720p+WEB-DL+DD5.1+H264-RARBG","amp;tr":["udp%3A%2F%2Ftracker.leechers-paradise.org%3A6969","udp%3A%2F%2Fzer0day.ch%3A1337","udp%3A%2F%2Fopen.demonii.com%3A1337","udp%3A%2F%2Ftracker.coppersurfer.tk%3A6969","udp%3A%2F%2Fexodus.desync.com%3A6969"],"infoHash":"adb215978a9e7cc49e998edec1021a3759908a2e","infoHashBuffer":{"type":"Buffer","data":[173,178,21,151,138,158,124,196,158,153,142,222,193,2,26,55,89,144,138,46]},"announce":[],"urlList":[]}}